<svg xmlns='http://www.w3.org/2000/svg'>

	<symbol id="logo" viewBox="0 0 1062 91" style="fill-rule: evenodd; clip-rule: evenodd; stroke-linejoin: round; stroke-miterlimit: 2;">
		<g transform="matrix(9.71483,0,0,9.71483,-1038.47,-2159.74)">
			<path d="M109.749,231.22L109.749,223.816L107.337,223.816L107.337,222.82L113.193,222.82L113.193,223.816L110.781,223.816L110.781,231.22L109.749,231.22Z" style="fill:none;fill-rule:nonzero;stroke:black;stroke-width:0.21px;" class="IiNrjKCm_0"></path>
			<path d="M117.477,231.364C116.701,231.364 116.123,231.142 115.743,230.698C115.363,230.254 115.173,229.536 115.173,228.544L115.173,225.088L116.205,225.088L116.205,228.676C116.205,229.276 116.331,229.714 116.583,229.99C116.835,230.266 117.173,230.404 117.597,230.404C118.597,230.404 119.097,229.836 119.097,228.7L119.097,225.088L120.141,225.088L120.141,231.22L119.097,231.22L119.097,230.62C118.713,231.116 118.173,231.364 117.477,231.364Z" style="fill:none;fill-rule:nonzero;stroke:black;stroke-width:0.21px;" class="IiNrjKCm_1"></path>
			<path d="M127.137,230.5C126.617,231.076 125.921,231.364 125.049,231.364C124.177,231.364 123.481,231.08 122.961,230.512C122.441,229.944 122.181,229.16 122.181,228.16C122.181,227.168 122.441,226.384 122.961,225.808C123.481,225.232 124.177,224.944 125.049,224.944C125.929,224.944 126.627,225.228 127.143,225.796C127.659,226.364 127.917,227.148 127.917,228.148C127.917,229.14 127.657,229.924 127.137,230.5ZM125.049,230.416C125.625,230.416 126.073,230.214 126.393,229.81C126.713,229.406 126.873,228.852 126.873,228.148C126.873,227.436 126.717,226.88 126.405,226.48C126.093,226.08 125.641,225.88 125.049,225.88C124.457,225.88 124.005,226.078 123.693,226.474C123.381,226.87 123.225,227.432 123.225,228.16C123.225,228.864 123.383,229.416 123.699,229.816C124.015,230.216 124.465,230.416 125.049,230.416Z" style="fill:none;fill-rule:nonzero;stroke:black;stroke-width:0.21px;" class="IiNrjKCm_2"></path>
			<path d="M134.037,224.944C134.549,224.944 134.927,225.112 135.171,225.448C135.415,225.784 135.537,226.324 135.537,227.068L135.537,231.22L134.541,231.22L134.541,227.464C134.541,226.904 134.493,226.504 134.397,226.264C134.301,226.024 134.109,225.904 133.821,225.904C133.525,225.904 133.305,226.052 133.161,226.348C133.017,226.644 132.945,227.036 132.945,227.524L132.945,231.22L131.949,231.22L131.949,227.356C131.949,226.892 131.903,226.534 131.811,226.282C131.719,226.03 131.537,225.904 131.265,225.904C130.969,225.904 130.741,226.054 130.581,226.354C130.421,226.654 130.341,227.044 130.341,227.524L130.341,231.22L129.345,231.22L129.345,225.088L130.281,225.088L130.281,225.88C130.521,225.256 130.917,224.944 131.469,224.944C131.773,224.944 132.029,225.036 132.237,225.22C132.445,225.404 132.589,225.624 132.669,225.88C133.013,225.256 133.469,224.944 134.037,224.944Z" style="fill:none;fill-rule:nonzero;stroke:black;stroke-width:0.21px;" class="IiNrjKCm_3"></path>
			<path d="M139.425,231.364C138.761,231.364 138.229,231.186 137.829,230.83C137.429,230.474 137.229,229.964 137.229,229.3C137.229,228.636 137.455,228.132 137.907,227.788C138.359,227.444 138.917,227.272 139.581,227.272C140.189,227.272 140.741,227.404 141.237,227.668L141.237,227.2C141.237,226.288 140.805,225.832 139.941,225.832C139.309,225.832 138.661,226.048 137.997,226.48L137.697,225.628C138.433,225.172 139.213,224.944 140.037,224.944C140.301,224.944 140.549,224.974 140.781,225.034C141.013,225.094 141.243,225.198 141.471,225.346C141.699,225.494 141.879,225.72 142.011,226.024C142.143,226.328 142.209,226.696 142.209,227.128L142.209,231.22L141.237,231.22L141.237,230.656C140.725,231.128 140.121,231.364 139.425,231.364ZM139.557,230.476C140.197,230.476 140.757,230.196 141.237,229.636L141.237,228.58C140.765,228.292 140.253,228.148 139.701,228.148C139.269,228.148 138.909,228.246 138.621,228.442C138.333,228.638 138.189,228.924 138.189,229.3C138.189,229.652 138.309,229.936 138.549,230.152C138.789,230.368 139.125,230.476 139.557,230.476Z" style="fill:none;fill-rule:nonzero;stroke:black;stroke-width:0.21px;" class="IiNrjKCm_4"></path>
			<path d="M146.841,231.364C146.393,231.364 145.967,231.266 145.563,231.07C145.159,230.874 144.821,230.612 144.549,230.284L145.245,229.672C145.733,230.208 146.289,230.476 146.913,230.476C147.257,230.476 147.541,230.406 147.765,230.266C147.989,230.126 148.101,229.928 148.101,229.672C148.101,229.52 148.063,229.384 147.987,229.264C147.911,229.144 147.783,229.032 147.603,228.928C147.423,228.824 147.269,228.742 147.141,228.682C147.013,228.622 146.813,228.54 146.541,228.436C146.221,228.308 145.967,228.196 145.779,228.1C145.591,228.004 145.395,227.88 145.191,227.728C144.987,227.576 144.839,227.404 144.747,227.212C144.655,227.02 144.609,226.796 144.609,226.54C144.609,226.06 144.811,225.674 145.215,225.382C145.619,225.09 146.133,224.944 146.757,224.944C147.637,224.944 148.353,225.26 148.905,225.892L148.221,226.456C147.773,226.04 147.277,225.832 146.733,225.832C146.373,225.832 146.087,225.896 145.875,226.024C145.663,226.152 145.557,226.324 145.557,226.54C145.557,226.772 145.667,226.96 145.887,227.104C146.107,227.248 146.445,227.408 146.901,227.584C146.941,227.6 146.973,227.612 146.997,227.62C147.277,227.732 147.479,227.814 147.603,227.866C147.727,227.918 147.903,228.008 148.131,228.136C148.359,228.264 148.525,228.388 148.629,228.508C148.733,228.628 148.829,228.786 148.917,228.982C149.005,229.178 149.049,229.396 149.049,229.636C149.049,230.172 148.851,230.594 148.455,230.902C148.059,231.21 147.521,231.364 146.841,231.364Z" style="fill:none;fill-rule:nonzero;stroke:black;stroke-width:0.21px;" class="IiNrjKCm_5"></path>
			<path d="M159.105,231.22L159.105,222.82L160.137,222.82L160.137,230.224L164.133,230.224L164.133,231.22L159.105,231.22Z" style="fill:none;fill-rule:nonzero;stroke:black;stroke-width:0.21px;" class="IiNrjKCm_6"></path>
			<path d="M170.889,230.5C170.369,231.076 169.673,231.364 168.801,231.364C167.929,231.364 167.233,231.08 166.713,230.512C166.193,229.944 165.933,229.16 165.933,228.16C165.933,227.168 166.193,226.384 166.713,225.808C167.233,225.232 167.929,224.944 168.801,224.944C169.681,224.944 170.379,225.228 170.895,225.796C171.411,226.364 171.669,227.148 171.669,228.148C171.669,229.14 171.409,229.924 170.889,230.5ZM168.801,230.416C169.377,230.416 169.825,230.214 170.145,229.81C170.465,229.406 170.625,228.852 170.625,228.148C170.625,227.436 170.469,226.88 170.157,226.48C169.845,226.08 169.393,225.88 168.801,225.88C168.209,225.88 167.757,226.078 167.445,226.474C167.133,226.87 166.977,227.432 166.977,228.16C166.977,228.864 167.135,229.416 167.451,229.816C167.767,230.216 168.217,230.416 168.801,230.416Z" style="fill:none;fill-rule:nonzero;stroke:black;stroke-width:0.21px;" class="IiNrjKCm_7"></path>
			<path d="M176.013,231.364C175.237,231.364 174.659,231.142 174.279,230.698C173.899,230.254 173.709,229.536 173.709,228.544L173.709,225.088L174.741,225.088L174.741,228.676C174.741,229.276 174.867,229.714 175.119,229.99C175.371,230.266 175.709,230.404 176.133,230.404C177.133,230.404 177.633,229.836 177.633,228.7L177.633,225.088L178.677,225.088L178.677,231.22L177.633,231.22L177.633,230.62C177.249,231.116 176.709,231.364 176.013,231.364Z" style="fill:none;fill-rule:nonzero;stroke:black;stroke-width:0.21px;" class="IiNrjKCm_8"></path>
			<path d="M186.273,227.884C186.273,228.148 186.261,228.372 186.237,228.556L181.953,228.556C182.033,229.148 182.227,229.61 182.535,229.942C182.843,230.274 183.245,230.44 183.741,230.44C184.261,230.44 184.737,230.264 185.169,229.912L185.745,230.584C185.169,231.104 184.489,231.364 183.705,231.364C182.849,231.364 182.167,231.06 181.659,230.452C181.151,229.844 180.897,229.076 180.897,228.148C180.897,227.148 181.151,226.364 181.659,225.796C182.167,225.228 182.849,224.944 183.705,224.944C184.457,224.944 185.073,225.192 185.553,225.688C186.033,226.184 186.273,226.916 186.273,227.884ZM181.929,227.668L185.253,227.668C185.237,227.02 185.077,226.556 184.773,226.276C184.469,225.996 184.113,225.856 183.705,225.856C183.161,225.856 182.739,226.016 182.439,226.336C182.139,226.656 181.969,227.1 181.929,227.668Z" style="fill:none;fill-rule:nonzero;stroke:black;stroke-width:0.21px;" class="IiNrjKCm_9"></path>
			<path d="M192.525,231.22L190.629,227.488L189.537,228.604L189.537,231.22L188.517,231.22L188.517,223.048L189.537,222.556L189.537,227.44L191.769,225.088L192.969,225.088L191.349,226.744L193.641,231.22L192.525,231.22Z" style="fill:none;fill-rule:nonzero;stroke:black;stroke-width:0.21px;" class="IiNrjKCm_10"></path>
			<path d="M197.721,231.364C197.057,231.364 196.525,231.186 196.125,230.83C195.725,230.474 195.525,229.964 195.525,229.3C195.525,228.636 195.751,228.132 196.203,227.788C196.655,227.444 197.213,227.272 197.877,227.272C198.485,227.272 199.037,227.404 199.533,227.668L199.533,227.2C199.533,226.288 199.101,225.832 198.237,225.832C197.605,225.832 196.957,226.048 196.293,226.48L195.993,225.628C196.729,225.172 197.509,224.944 198.333,224.944C198.597,224.944 198.845,224.974 199.077,225.034C199.309,225.094 199.539,225.198 199.767,225.346C199.995,225.494 200.175,225.72 200.307,226.024C200.439,226.328 200.505,226.696 200.505,227.128L200.505,231.22L199.533,231.22L199.533,230.656C199.021,231.128 198.417,231.364 197.721,231.364ZM197.853,230.476C198.493,230.476 199.053,230.196 199.533,229.636L199.533,228.58C199.061,228.292 198.549,228.148 197.997,228.148C197.565,228.148 197.205,228.246 196.917,228.442C196.629,228.638 196.485,228.924 196.485,229.3C196.485,229.652 196.605,229.936 196.845,230.152C197.085,230.368 197.421,230.476 197.853,230.476Z" style="fill:none;fill-rule:nonzero;stroke:black;stroke-width:0.21px;" class="IiNrjKCm_11"></path>
			<path d="M207.033,224.944C207.601,224.944 208.049,225.04 208.377,225.232L208.377,227.356L207.357,227.356L207.357,225.964C207.277,225.956 207.153,225.952 206.985,225.952C206.361,225.952 205.835,226.104 205.407,226.408C204.979,226.712 204.765,227.14 204.765,227.692L204.765,230.308L206.553,230.308L206.553,231.22L202.437,231.22L202.437,230.308L203.721,230.308L203.721,226L202.437,226L202.437,225.088L204.693,225.088L204.693,226.156C204.901,225.788 205.227,225.494 205.671,225.274C206.115,225.054 206.569,224.944 207.033,224.944Z" style="fill:none;fill-rule:nonzero;stroke:black;stroke-width:0.21px;" class="IiNrjKCm_12"></path>
			<path d="M213.057,223.96C212.881,223.96 212.731,223.898 212.607,223.774C212.483,223.65 212.421,223.5 212.421,223.324C212.421,223.14 212.483,222.984 212.607,222.856C212.731,222.728 212.881,222.664 213.057,222.664C213.241,222.664 213.395,222.728 213.519,222.856C213.643,222.984 213.705,223.14 213.705,223.324C213.705,223.508 213.643,223.66 213.519,223.78C213.395,223.9 213.241,223.96 213.057,223.96ZM213.573,230.308L215.265,230.308L215.265,231.22L210.861,231.22L210.861,230.308L212.553,230.308L212.553,226L210.861,226L210.861,225.088L213.573,225.088L213.573,230.308Z" style="fill:none;fill-rule:nonzero;stroke:black;stroke-width:0.21px;" class="IiNrjKCm_13"></path>
		</g>
	<style data-made-with="vivus-instant">.IiNrjKCm_0{stroke-dasharray:29 31;stroke-dashoffset:30;animation:IiNrjKCm_draw 1000ms ease-out 0ms forwards;}.IiNrjKCm_1{stroke-dasharray:32 34;stroke-dashoffset:33;animation:IiNrjKCm_draw 1000ms ease-out 0ms forwards;}.IiNrjKCm_2{stroke-dasharray:33 35;stroke-dashoffset:34;animation:IiNrjKCm_draw 1000ms ease-out 0ms forwards;}.IiNrjKCm_3{stroke-dasharray:46 48;stroke-dashoffset:47;animation:IiNrjKCm_draw 1000ms ease-out 0ms forwards;}.IiNrjKCm_4{stroke-dasharray:37 39;stroke-dashoffset:38;animation:IiNrjKCm_draw 1000ms ease-out 0ms forwards;}.IiNrjKCm_5{stroke-dasharray:30 32;stroke-dashoffset:31;animation:IiNrjKCm_draw 1000ms ease-out 0ms forwards;}.IiNrjKCm_6{stroke-dasharray:27 29;stroke-dashoffset:28;animation:IiNrjKCm_draw 1000ms ease-out 0ms forwards;}.IiNrjKCm_7{stroke-dasharray:33 35;stroke-dashoffset:34;animation:IiNrjKCm_draw 1000ms ease-out 0ms forwards;}.IiNrjKCm_8{stroke-dasharray:32 34;stroke-dashoffset:33;animation:IiNrjKCm_draw 1000ms ease-out 0ms forwards;}.IiNrjKCm_9{stroke-dasharray:36 38;stroke-dashoffset:37;animation:IiNrjKCm_draw 1000ms ease-out 0ms forwards;}.IiNrjKCm_10{stroke-dasharray:37 39;stroke-dashoffset:38;animation:IiNrjKCm_draw 1000ms ease-out 0ms forwards;}.IiNrjKCm_11{stroke-dasharray:37 39;stroke-dashoffset:38;animation:IiNrjKCm_draw 1000ms ease-out 0ms forwards;}.IiNrjKCm_12{stroke-dasharray:34 36;stroke-dashoffset:35;animation:IiNrjKCm_draw 1000ms ease-out 0ms forwards;}.IiNrjKCm_13{stroke-dasharray:29 31;stroke-dashoffset:30;animation:IiNrjKCm_draw 1000ms ease-out 0ms forwards;}@keyframes IiNrjKCm_draw{100%{stroke-dashoffset:0;}}@keyframes IiNrjKCm_fade{0%{stroke-opacity:1;}92.3076923076923%{stroke-opacity:1;}100%{stroke-opacity:0;}}</style></svg>


	<symbol id='menu' viewBox='0 0 16 16'>
		<path d="M1.5 2.5l13 0M1.5 8l13 0M1.5 13.5l13 0" stroke-width="2" stroke-linecap="round" />
	</symbol>

	<symbol id='arrow-left' viewBox='0 0 16 16'>
		<path d="M1.5 8l13 0M5 4l-4 4l4 4" stroke-width="2" stroke-linecap="round" fill="none" />
	</symbol>

	<symbol id='arrow-right' viewBox='0 0 16 16'>
		<path d="M1.5 8l13 0M11 4l4 4l-4 4" stroke-width="2" stroke-linecap="round" fill="none" />
	</symbol>

	<symbol id="facebook" viewBox="0 0 16 16">
		<path d="M14.5 0h-13c-0.825 0-1.5 0.675-1.5 1.5v13c0 0.825 0.675 1.5 1.5 1.5h6.5v-7h-2v-2h2v-1c0-1.653 1.347-3 3-3h2v2h-2c-0.55 0-1 0.45-1 1v1h3l-0.5 2h-2.5v7h4.5c0.825 0 1.5-0.675 1.5-1.5v-13c0-0.825-0.675-1.5-1.5-1.5z" stroke="none" />
	</symbol>

	<symbol id="twitter" viewBox="0 0 16 16">
		<path d="M16 3.538c-0.588 0.263-1.222 0.438-1.884 0.516 0.678-0.406 1.197-1.050 1.444-1.816-0.634 0.375-1.338 0.65-2.084 0.797-0.6-0.638-1.453-1.034-2.397-1.034-1.813 0-3.281 1.469-3.281 3.281 0 0.256 0.028 0.506 0.084 0.747-2.728-0.138-5.147-1.444-6.766-3.431-0.281 0.484-0.444 1.050-0.444 1.65 0 1.138 0.578 2.144 1.459 2.731-0.538-0.016-1.044-0.166-1.488-0.409 0 0.013 0 0.028 0 0.041 0 1.591 1.131 2.919 2.634 3.219-0.275 0.075-0.566 0.116-0.866 0.116-0.212 0-0.416-0.022-0.619-0.059 0.419 1.303 1.631 2.253 3.066 2.281-1.125 0.881-2.538 1.406-4.078 1.406-0.266 0-0.525-0.016-0.784-0.047 1.456 0.934 3.181 1.475 5.034 1.475 6.037 0 9.341-5.003 9.341-9.341 0-0.144-0.003-0.284-0.009-0.425 0.641-0.459 1.197-1.038 1.637-1.697z" stroke="none" />
	</symbol>

	<symbol id="whatsapp" viewBox="0 0 16 16">
		<path d="M13.641 2.325c-1.497-1.5-3.488-2.325-5.609-2.325-4.369 0-7.925 3.556-7.925 7.928 0 1.397 0.366 2.763 1.059 3.963l-1.125 4.109 4.203-1.103c1.159 0.631 2.463 0.966 3.787 0.966h0.003c0 0 0 0 0 0 4.369 0 7.928-3.556 7.928-7.928 0-2.119-0.825-4.109-2.322-5.609zM8.034 14.525v0c-1.184 0-2.344-0.319-3.356-0.919l-0.241-0.144-2.494 0.653 0.666-2.431-0.156-0.25c-0.663-1.047-1.009-2.259-1.009-3.506 0-3.634 2.956-6.591 6.594-6.591 1.759 0 3.416 0.688 4.659 1.931 1.244 1.247 1.928 2.9 1.928 4.662-0.003 3.637-2.959 6.594-6.591 6.594zM11.647 9.588c-0.197-0.1-1.172-0.578-1.353-0.644s-0.313-0.1-0.447 0.1c-0.131 0.197-0.512 0.644-0.628 0.778-0.116 0.131-0.231 0.15-0.428 0.050s-0.838-0.309-1.594-0.984c-0.588-0.525-0.987-1.175-1.103-1.372s-0.013-0.306 0.088-0.403c0.091-0.088 0.197-0.231 0.297-0.347s0.131-0.197 0.197-0.331c0.066-0.131 0.034-0.247-0.016-0.347s-0.447-1.075-0.609-1.472c-0.159-0.388-0.325-0.334-0.447-0.341-0.116-0.006-0.247-0.006-0.378-0.006s-0.347 0.050-0.528 0.247c-0.181 0.197-0.694 0.678-0.694 1.653s0.709 1.916 0.809 2.050c0.1 0.131 1.397 2.134 3.384 2.991 0.472 0.203 0.841 0.325 1.128 0.419 0.475 0.15 0.906 0.128 1.247 0.078 0.381-0.056 1.172-0.478 1.338-0.941s0.166-0.859 0.116-0.941c-0.047-0.088-0.178-0.137-0.378-0.238z" stroke='none' />
	</symbol>
<style data-made-with="vivus-instant">.bzdPMSCN_0{stroke-dasharray:607 609;stroke-dashoffset:608;animation:bzdPMSCN_draw 344ms ease-out 0ms forwards;}.bzdPMSCN_1{stroke-dasharray:4685 4687;stroke-dashoffset:4686;animation:bzdPMSCN_draw 2655ms ease-out 344ms forwards;}@keyframes bzdPMSCN_draw{100%{stroke-dashoffset:0;}}@keyframes bzdPMSCN_fade{0%{stroke-opacity:1;}94.44444444444444%{stroke-opacity:1;}100%{stroke-opacity:0;}}</style>
</svg>

