<svg xmlns='http://www.w3.org/2000/svg'>
	<symbol id='menu' viewBox='0 0 16 16'>
		<path d="M1.5 2.5l13 0M1.5 8l13 0M1.5 13.5l13 0" stroke-width="2" stroke-linecap="round" />
	</symbol>

	<symbol id='close' viewBox='0 0 16 16'>
		<path d="M2 2l12 12 M2 14l12 -12" stroke-width="2" stroke-linecap="round" />
	</symbol>

	<symbol id='prev' viewBox='0 0 16 16'>
		<path d="M12 2l-6, 6l6, 6" stroke-width="2" stroke-linecap="round" stroke="black" stroke-linejoin="round" fill="transparent"/>
	</symbol>

	<symbol id='next' viewBox='0 0 16 16'>
		<path d="M2 2l6, 6l-6, 6" stroke-width="2" stroke-linecap="round" stroke="black" stroke-linejoin="round" fill="transparent"/>
	</symbol>

	<symbol id="facebook" viewBox="0 0 16 16">
		<path d="M14.5 0h-13c-0.825 0-1.5 0.675-1.5 1.5v13c0 0.825 0.675 1.5 1.5 1.5h6.5v-7h-2v-2h2v-1c0-1.653 1.347-3 3-3h2v2h-2c-0.55 0-1 0.45-1 1v1h3l-0.5 2h-2.5v7h4.5c0.825 0 1.5-0.675 1.5-1.5v-13c0-0.825-0.675-1.5-1.5-1.5z" stroke="none" />
	</symbol>

	<symbol id="twitter" viewBox="0 0 16 16">
		<path d="M16 3.538c-0.588 0.263-1.222 0.438-1.884 0.516 0.678-0.406 1.197-1.050 1.444-1.816-0.634 0.375-1.338 0.65-2.084 0.797-0.6-0.638-1.453-1.034-2.397-1.034-1.813 0-3.281 1.469-3.281 3.281 0 0.256 0.028 0.506 0.084 0.747-2.728-0.138-5.147-1.444-6.766-3.431-0.281 0.484-0.444 1.050-0.444 1.65 0 1.138 0.578 2.144 1.459 2.731-0.538-0.016-1.044-0.166-1.488-0.409 0 0.013 0 0.028 0 0.041 0 1.591 1.131 2.919 2.634 3.219-0.275 0.075-0.566 0.116-0.866 0.116-0.212 0-0.416-0.022-0.619-0.059 0.419 1.303 1.631 2.253 3.066 2.281-1.125 0.881-2.538 1.406-4.078 1.406-0.266 0-0.525-0.016-0.784-0.047 1.456 0.934 3.181 1.475 5.034 1.475 6.037 0 9.341-5.003 9.341-9.341 0-0.144-0.003-0.284-0.009-0.425 0.641-0.459 1.197-1.038 1.637-1.697z" stroke="none" />
	</symbol>

	<symbol id="whatsapp" viewBox="0 0 16 16">
		<path d="M13.641 2.325c-1.497-1.5-3.488-2.325-5.609-2.325-4.369 0-7.925 3.556-7.925 7.928 0 1.397 0.366 2.763 1.059 3.963l-1.125 4.109 4.203-1.103c1.159 0.631 2.463 0.966 3.787 0.966h0.003c0 0 0 0 0 0 4.369 0 7.928-3.556 7.928-7.928 0-2.119-0.825-4.109-2.322-5.609zM8.034 14.525v0c-1.184 0-2.344-0.319-3.356-0.919l-0.241-0.144-2.494 0.653 0.666-2.431-0.156-0.25c-0.663-1.047-1.009-2.259-1.009-3.506 0-3.634 2.956-6.591 6.594-6.591 1.759 0 3.416 0.688 4.659 1.931 1.244 1.247 1.928 2.9 1.928 4.662-0.003 3.637-2.959 6.594-6.591 6.594zM11.647 9.588c-0.197-0.1-1.172-0.578-1.353-0.644s-0.313-0.1-0.447 0.1c-0.131 0.197-0.512 0.644-0.628 0.778-0.116 0.131-0.231 0.15-0.428 0.050s-0.838-0.309-1.594-0.984c-0.588-0.525-0.987-1.175-1.103-1.372s-0.013-0.306 0.088-0.403c0.091-0.088 0.197-0.231 0.297-0.347s0.131-0.197 0.197-0.331c0.066-0.131 0.034-0.247-0.016-0.347s-0.447-1.075-0.609-1.472c-0.159-0.388-0.325-0.334-0.447-0.341-0.116-0.006-0.247-0.006-0.378-0.006s-0.347 0.050-0.528 0.247c-0.181 0.197-0.694 0.678-0.694 1.653s0.709 1.916 0.809 2.050c0.1 0.131 1.397 2.134 3.384 2.991 0.472 0.203 0.841 0.325 1.128 0.419 0.475 0.15 0.906 0.128 1.247 0.078 0.381-0.056 1.172-0.478 1.338-0.941s0.166-0.859 0.116-0.941c-0.047-0.088-0.178-0.137-0.378-0.238z" stroke='none' />
	</symbol>
</svg>

