<svg xmlns='http://www.w3.org/2000/svg'>

	<symbol id='logo' viewBox='0 0 1147 552'>
		<g id="tilted" transform="matrix(0.980686,0,0,0.980686,-46.1,-371.877)">
			<path d="M482.738,516.503C524.213,396.187 382.235,312.63 340.616,659.948C325.113,789.331 379.064,833.927 387.627,843.385" style="fill:none;stroke:rgb(255,186,0);stroke-width:56.08px;" class="bzdPMSCN_0"></path>
			<g transform="matrix(1,0,0,1,23.817,-7.91923)">
				<path d="M92.877,470.903C110.026,516.977 195.963,527.578 250.852,424.776C172.413,696.401 237.773,903.006 131.726,915.761C43.237,926.405 31.058,793.593 141.276,713.784C204.548,667.969 392.509,584.021 501.335,627.101C360.452,603.523 347.759,822.461 487.903,813.169C554.887,808.728 591.984,732.978 552.764,666.709C520.773,612.657 467.215,616.811 449.993,655.422C423.621,714.544 497.227,739.441 525.066,693.712C544.576,661.665 552.034,589.895 589.75,587.607C654.751,583.663 640.841,756.568 641.652,776.209C647.339,679.962 642.495,580.136 708.589,574.647C791.82,567.736 721.382,736.245 781.878,761.323C823.55,778.598 918.046,706.539 935.932,637.372C958.108,551.616 815.582,536.183 815.12,646.126C814.565,778.211 1001.53,856.159 1010.79,579.132C994.911,692.699 1014.48,774.028 1073.65,770.099C1132.83,766.171 1144.68,666.322 1148.17,592.412C1159.59,691.719 1153.06,802.65 1129.78,857.357C1094.64,939.911 1002.16,920.282 1001.49,849.298" style="fill:none;stroke:rgb(255,186,0);stroke-width:56.08px;" class="bzdPMSCN_1"></path>
			</g>
    	</g>
	</symbol>

	<symbol id='menu' viewBox='0 0 16 16'>
		<path d="M1.5 2.5l13 0M1.5 8l13 0M1.5 13.5l13 0" stroke-width="2" stroke-linecap="round" />
	</symbol>

	<symbol id='arrow-left' viewBox='0 0 16 16'>
		<path d="M1.5 8l13 0M5 4l-4 4l4 4" stroke-width="2" stroke-linecap="round" fill="none" />
	</symbol>

	<symbol id='arrow-right' viewBox='0 0 16 16'>
		<path d="M1.5 8l13 0M11 4l4 4l-4 4" stroke-width="2" stroke-linecap="round" fill="none" />
	</symbol>

	<symbol id="facebook" viewBox="0 0 16 16">
		<path d="M14.5 0h-13c-0.825 0-1.5 0.675-1.5 1.5v13c0 0.825 0.675 1.5 1.5 1.5h6.5v-7h-2v-2h2v-1c0-1.653 1.347-3 3-3h2v2h-2c-0.55 0-1 0.45-1 1v1h3l-0.5 2h-2.5v7h4.5c0.825 0 1.5-0.675 1.5-1.5v-13c0-0.825-0.675-1.5-1.5-1.5z" stroke="none" />
	</symbol>

	<symbol id="twitter" viewBox="0 0 16 16">
		<path d="M16 3.538c-0.588 0.263-1.222 0.438-1.884 0.516 0.678-0.406 1.197-1.050 1.444-1.816-0.634 0.375-1.338 0.65-2.084 0.797-0.6-0.638-1.453-1.034-2.397-1.034-1.813 0-3.281 1.469-3.281 3.281 0 0.256 0.028 0.506 0.084 0.747-2.728-0.138-5.147-1.444-6.766-3.431-0.281 0.484-0.444 1.050-0.444 1.65 0 1.138 0.578 2.144 1.459 2.731-0.538-0.016-1.044-0.166-1.488-0.409 0 0.013 0 0.028 0 0.041 0 1.591 1.131 2.919 2.634 3.219-0.275 0.075-0.566 0.116-0.866 0.116-0.212 0-0.416-0.022-0.619-0.059 0.419 1.303 1.631 2.253 3.066 2.281-1.125 0.881-2.538 1.406-4.078 1.406-0.266 0-0.525-0.016-0.784-0.047 1.456 0.934 3.181 1.475 5.034 1.475 6.037 0 9.341-5.003 9.341-9.341 0-0.144-0.003-0.284-0.009-0.425 0.641-0.459 1.197-1.038 1.637-1.697z" stroke="none" />
	</symbol>

	<symbol id="whatsapp" viewBox="0 0 16 16">
		<path d="M13.641 2.325c-1.497-1.5-3.488-2.325-5.609-2.325-4.369 0-7.925 3.556-7.925 7.928 0 1.397 0.366 2.763 1.059 3.963l-1.125 4.109 4.203-1.103c1.159 0.631 2.463 0.966 3.787 0.966h0.003c0 0 0 0 0 0 4.369 0 7.928-3.556 7.928-7.928 0-2.119-0.825-4.109-2.322-5.609zM8.034 14.525v0c-1.184 0-2.344-0.319-3.356-0.919l-0.241-0.144-2.494 0.653 0.666-2.431-0.156-0.25c-0.663-1.047-1.009-2.259-1.009-3.506 0-3.634 2.956-6.591 6.594-6.591 1.759 0 3.416 0.688 4.659 1.931 1.244 1.247 1.928 2.9 1.928 4.662-0.003 3.637-2.959 6.594-6.591 6.594zM11.647 9.588c-0.197-0.1-1.172-0.578-1.353-0.644s-0.313-0.1-0.447 0.1c-0.131 0.197-0.512 0.644-0.628 0.778-0.116 0.131-0.231 0.15-0.428 0.050s-0.838-0.309-1.594-0.984c-0.588-0.525-0.987-1.175-1.103-1.372s-0.013-0.306 0.088-0.403c0.091-0.088 0.197-0.231 0.297-0.347s0.131-0.197 0.197-0.331c0.066-0.131 0.034-0.247-0.016-0.347s-0.447-1.075-0.609-1.472c-0.159-0.388-0.325-0.334-0.447-0.341-0.116-0.006-0.247-0.006-0.378-0.006s-0.347 0.050-0.528 0.247c-0.181 0.197-0.694 0.678-0.694 1.653s0.709 1.916 0.809 2.050c0.1 0.131 1.397 2.134 3.384 2.991 0.472 0.203 0.841 0.325 1.128 0.419 0.475 0.15 0.906 0.128 1.247 0.078 0.381-0.056 1.172-0.478 1.338-0.941s0.166-0.859 0.116-0.941c-0.047-0.088-0.178-0.137-0.378-0.238z" stroke='none' />
	</symbol>
<style data-made-with="vivus-instant">.bzdPMSCN_0{stroke-dasharray:607 609;stroke-dashoffset:608;animation:bzdPMSCN_draw 344ms ease-out 0ms forwards;}.bzdPMSCN_1{stroke-dasharray:4685 4687;stroke-dashoffset:4686;animation:bzdPMSCN_draw 2655ms ease-out 344ms forwards;}@keyframes bzdPMSCN_draw{100%{stroke-dashoffset:0;}}@keyframes bzdPMSCN_fade{0%{stroke-opacity:1;}94.44444444444444%{stroke-opacity:1;}100%{stroke-opacity:0;}}</style>
</svg>

