<?xml version="1.0" standalone="no"?>
<!DOCTYPE svg PUBLIC "-//W3C//DTD SVG 20010904//EN"
 "http://www.w3.org/TR/2001/REC-SVG-20010904/DTD/svg10.dtd">
<svg version="1.0" xmlns="http://www.w3.org/2000/svg"
 width="600.000000pt" height="600.000000pt" viewBox="0 0 600.000000 600.000000"
 preserveAspectRatio="xMidYMid meet">
<metadata>
Created by potrace 1.11, written by Peter Selinger 2001-2013
</metadata>
<g transform="translate(0.000000,600.000000) scale(0.100000,-0.100000)"
fill="#000000" stroke="none">
<path d="M2838 5675 c-2 -1 -39 -5 -83 -9 -208 -16 -475 -76 -680 -152 -576
-216 -1058 -616 -1375 -1144 -128 -213 -269 -558 -304 -740 -2 -14 -11 -56
-20 -95 -37 -174 -49 -309 -49 -540 0 -218 11 -342 48 -530 14 -68 58 -235 82
-305 141 -418 348 -749 667 -1065 425 -422 949 -676 1561 -755 113 -15 408
-20 540 -9 130 11 316 43 435 74 52 14 103 27 112 30 93 22 356 131 488 202
133 72 370 227 400 262 3 3 23 19 45 36 41 31 274 259 337 330 19 23 66 83
104 135 279 379 432 754 508 1240 34 213 24 641 -19 840 -3 14 -8 39 -11 55
-11 64 -55 226 -85 316 -279 832 -962 1485 -1804 1723 -130 37 -278 67 -420
86 -78 11 -468 23 -477 15z m1893 -1351 c95 -44 151 -116 259 -333 210 -421
280 -883 205 -1351 -18 -117 -54 -258 -75 -301 -25 -48 -84 -104 -140 -131
l-45 -23 -1900 0 c-1675 0 -1986 3 -2004 21 -7 6 472 484 485 484 6 0 21 -12
35 -26 30 -32 132 -104 179 -126 159 -75 257 -97 412 -93 302 8 555 159 708
423 180 311 138 709 -103 977 -20 22 -37 42 -37 45 0 3 100 105 223 227 176
176 228 222 252 225 17 1 361 3 765 3 724 0 736 -1 781 -21z m-2321 -99 l-115
-115 -60 7 c-280 32 -533 -57 -724 -256 -103 -108 -167 -224 -207 -376 -18
-67 -24 -144 -20 -252 l4 -129 -238 -238 c-131 -130 -240 -234 -243 -229 -3 4
-8 31 -11 58 -51 407 -4 781 147 1150 60 147 158 329 213 395 34 40 101 79
155 89 24 4 307 9 629 10 l585 1 -115 -115z"/>
<path d="M3925 4119 c-335 -39 -617 -276 -711 -598 -26 -90 -41 -227 -30 -284
11 -58 61 -123 118 -151 147 -73 308 20 324 187 13 142 46 218 126 293 160
149 405 142 557 -17 40 -43 90 -144 96 -195 17 -146 31 -188 78 -231 52 -46
85 -58 157 -58 91 0 153 36 193 115 28 53 29 59 24 160 -12 231 -121 443 -307
595 -94 76 -183 122 -320 163 -77 23 -206 32 -305 21z"/>
</g>
</svg>
